<svg xmlns="http://www.w3.org/2000/svg" viewBox="0 0 1100 840" role="img">
  <style>
    text{font-family:Inter,ui-sans-serif,system-ui,sans-serif;fill:#e2e8f0}.title{font-size:28px;font-weight:750}
    .subtitle{font-size:15px;fill:#94a3b8}.label{font-size:18px;font-weight:650}.small-label{font-size:13px}
    .value{font-size:15px;text-anchor:end}.track{fill:#1e293b}.grid{stroke:#334155;stroke-width:1}
    .axis-value{font-size:12px;fill:#94a3b8;text-anchor:end}.axis-label{font-size:13px;fill:#94a3b8}
    .legend{font-size:13px;fill:#cbd5e1}
  </style>
  <rect width="100%" height="100%" rx="28" fill="#0f172a"/>
  <text x="32" y="45" class="title">Chaos recovery</text>
  <text x="32" y="72" class="subtitle">Elapsed recovery time; red bars indicate scenarios that did not recover</text>
  <text x="25" y="128" class="small-label">cpu_redis · redis_restart</text>
<rect x="310" y="110" width="504.7580607153756" height="15" rx="7" fill="#22c55e"/>
<rect x="310" y="130" width="0.0" height="15" rx="7" fill="#ef4444"/>
<text x="25" y="183" class="small-label">cpu_redis · redis_outage</text>
<rect x="310" y="165" width="650.0" height="15" rx="7" fill="#22c55e"/>
<rect x="310" y="185" width="0.0" height="15" rx="7" fill="#ef4444"/>
<text x="25" y="238" class="small-label">pgoutput_redis · redis_restart</text>
<rect x="310" y="220" width="137.48477748166422" height="15" rx="7" fill="#22c55e"/>
<rect x="310" y="240" width="0.0" height="15" rx="7" fill="#ef4444"/>
<text x="25" y="293" class="small-label">pgoutput_redis · redis_outage</text>
<rect x="310" y="275" width="153.9900275431601" height="15" rx="7" fill="#22c55e"/>
<rect x="310" y="295" width="0.0" height="15" rx="7" fill="#ef4444"/>
<text x="25" y="348" class="small-label">pgoutput_redis · postgres_restart</text>
<rect x="310" y="330" width="129.91023216736534" height="15" rx="7" fill="#22c55e"/>
<rect x="310" y="350" width="0.0" height="15" rx="7" fill="#ef4444"/>
<text x="25" y="403" class="small-label">pgoutput_redis · postgres_outage</text>
<rect x="310" y="385" width="149.71034624779827" height="15" rx="7" fill="#22c55e"/>
<rect x="310" y="405" width="0.0" height="15" rx="7" fill="#ef4444"/>
<text x="25" y="458" class="small-label">pubsub · redis_restart</text>
<rect x="310" y="440" width="46.52108526754024" height="15" rx="7" fill="#22c55e"/>
<rect x="310" y="460" width="0.0" height="15" rx="7" fill="#ef4444"/>
<text x="25" y="513" class="small-label">pubsub · redis_outage</text>
<rect x="310" y="495" width="66.6822009448336" height="15" rx="7" fill="#22c55e"/>
<rect x="310" y="515" width="0.0" height="15" rx="7" fill="#ef4444"/>
<text x="25" y="568" class="small-label">pubsub · redis_source_outage</text>
<rect x="310" y="550" width="72.70343867739993" height="15" rx="7" fill="#22c55e"/>
<rect x="310" y="570" width="0.0" height="15" rx="7" fill="#ef4444"/>
<text x="25" y="623" class="small-label">streams · redis_restart</text>
<rect x="310" y="605" width="48.562749823128264" height="15" rx="7" fill="#22c55e"/>
<rect x="310" y="625" width="0.0" height="15" rx="7" fill="#ef4444"/>
<text x="25" y="678" class="small-label">streams · redis_outage</text>
<rect x="310" y="660" width="62.251183098373424" height="15" rx="7" fill="#22c55e"/>
<rect x="310" y="680" width="0.0" height="15" rx="7" fill="#ef4444"/>
<text x="25" y="733" class="small-label">streams · redis_source_outage</text>
<rect x="310" y="715" width="66.1658084473981" height="15" rx="7" fill="#22c55e"/>
<rect x="310" y="735" width="0.0" height="15" rx="7" fill="#ef4444"/>
<circle cx="120" cy="815" r="6" fill="#22c55e"/><text x="132" y="820" class="legend">Recovery seconds</text><circle cx="350" cy="815" r="6" fill="#ef4444"/><text x="362" y="820" class="legend">Not recovered</text>
</svg>
