<svg xmlns="http://www.w3.org/2000/svg" viewBox="0 0 1100 600" role="img">
  <style>
    text{font-family:Inter,ui-sans-serif,system-ui,sans-serif;fill:#e2e8f0}.title{font-size:28px;font-weight:750}
    .subtitle{font-size:15px;fill:#94a3b8}.label{font-size:18px;font-weight:650}.small-label{font-size:13px}
    .value{font-size:15px;text-anchor:end}.track{fill:#1e293b}.grid{stroke:#334155;stroke-width:1}
    .axis-value{font-size:12px;fill:#94a3b8;text-anchor:end}.axis-label{font-size:13px;fill:#94a3b8}
    .legend{font-size:13px;fill:#cbd5e1}
  </style>
  <rect width="100%" height="100%" rx="28" fill="#0f172a"/>
  <text x="32" y="45" class="title">Throughput versus p95 latency</text>
  <text x="32" y="72" class="subtitle">Upper-left is generally preferable: more throughput with less latency</text>
  <line x1="100" y1="100.0" x2="1000" y2="100.0" class="grid"/><text x="88" y="105.0" class="axis-value">51.6k</text><line x1="100" y1="197.5" x2="1000" y2="197.5" class="grid"/><text x="88" y="202.5" class="axis-value">38.7k</text><line x1="100" y1="295.0" x2="1000" y2="295.0" class="grid"/><text x="88" y="300.0" class="axis-value">25.8k</text><line x1="100" y1="392.5" x2="1000" y2="392.5" class="grid"/><text x="88" y="397.5" class="axis-value">12.9k</text><line x1="100" y1="490.0" x2="1000" y2="490.0" class="grid"/><text x="88" y="495.0" class="axis-value">0.0</text><text x="550" y="545" class="axis-label">Events/second</text><text x="25" y="295" class="axis-label">p95 latency (ms)</text><circle cx="594.4681605149968" cy="487.5748714819022" r="5" fill="#8b5cf6" fill-opacity="0.65"/><circle cx="173.82313682723634" cy="470.5318833510668" r="5" fill="#22c55e" fill-opacity="0.65"/><circle cx="191.01233439393013" cy="386.235370067114" r="5" fill="#ef4444" fill-opacity="0.65"/><circle cx="479.1183832940487" cy="486.88347782781887" r="5" fill="#8b5cf6" fill-opacity="0.65"/><circle cx="584.5094551631694" cy="487.5582147405757" r="5" fill="#8b5cf6" fill-opacity="0.65"/><circle cx="610.7583561234641" cy="487.69681541838764" r="5" fill="#8b5cf6" fill-opacity="0.65"/><circle cx="621.8879611305473" cy="487.75407921204896" r="5" fill="#8b5cf6" fill-opacity="0.65"/><circle cx="604.7541137786467" cy="487.69673548690764" r="5" fill="#8b5cf6" fill-opacity="0.65"/><circle cx="616.2668720300379" cy="487.7231207047362" r="5" fill="#8b5cf6" fill-opacity="0.65"/><circle cx="586.9517631955919" cy="487.5958303160786" r="5" fill="#8b5cf6" fill-opacity="0.65"/><circle cx="658.4825035048534" cy="487.95109004133406" r="5" fill="#8b5cf6" fill-opacity="0.65"/><circle cx="649.009891534389" cy="487.8895592789711" r="5" fill="#8b5cf6" fill-opacity="0.65"/><circle cx="661.6929233635209" cy="487.89829339305254" r="5" fill="#8b5cf6" fill-opacity="0.65"/><circle cx="593.2169279901561" cy="487.6185277015366" r="5" fill="#8b5cf6" fill-opacity="0.65"/><circle cx="590.5137597063724" cy="487.55927731634716" r="5" fill="#8b5cf6" fill-opacity="0.65"/><circle cx="592.6549669383451" cy="487.6028041825451" r="5" fill="#8b5cf6" fill-opacity="0.65"/><circle cx="590.4983461592183" cy="487.59418178038953" r="5" fill="#8b5cf6" fill-opacity="0.65"/><circle cx="604.1295242621125" cy="487.69771462104177" r="5" fill="#8b5cf6" fill-opacity="0.65"/><circle cx="564.1482224867464" cy="487.4667097492284" r="5" fill="#8b5cf6" fill-opacity="0.65"/><circle cx="581.8967715686002" cy="487.5415950373455" r="5" fill="#8b5cf6" fill-opacity="0.65"/><circle cx="578.3279372172203" cy="487.5453575813665" r="5" fill="#8b5cf6" fill-opacity="0.65"/><circle cx="691.1904312476591" cy="488.0435048792569" r="5" fill="#8b5cf6" fill-opacity="0.65"/><circle cx="709.5907805487367" cy="488.0652391153494" r="5" fill="#8b5cf6" fill-opacity="0.65"/><circle cx="770.6938352944435" cy="488.23682503930655" r="5" fill="#8b5cf6" fill-opacity="0.65"/><circle cx="780.9063108782572" cy="488.22763830547234" r="5" fill="#8b5cf6" fill-opacity="0.65"/><circle cx="728.3985002845487" cy="488.10659189222844" r="5" fill="#8b5cf6" fill-opacity="0.65"/><circle cx="773.1458213889791" cy="488.27171938141527" r="5" fill="#8b5cf6" fill-opacity="0.65"/><circle cx="542.4801284131911" cy="487.434355414069" r="5" fill="#8b5cf6" fill-opacity="0.65"/><circle cx="593.7750638385901" cy="487.53064630839634" r="5" fill="#8b5cf6" fill-opacity="0.65"/><circle cx="641.3674812801193" cy="487.7841138246365" r="5" fill="#8b5cf6" fill-opacity="0.65"/><circle cx="878.3186545162156" cy="488.45401973961555" r="5" fill="#8b5cf6" fill-opacity="0.65"/><circle cx="691.9573569492165" cy="487.92471101164796" r="5" fill="#8b5cf6" fill-opacity="0.65"/><circle cx="885.6773045029258" cy="488.4880150757573" r="5" fill="#8b5cf6" fill-opacity="0.65"/><circle cx="888.5313985012367" cy="488.50602298891704" r="5" fill="#8b5cf6" fill-opacity="0.65"/><circle cx="958.3514114529108" cy="488.66511789066686" r="5" fill="#8b5cf6" fill-opacity="0.65"/><circle cx="970.8306386362996" cy="488.6325786146703" r="5" fill="#8b5cf6" fill-opacity="0.65"/><circle cx="900.772683135569" cy="488.5832093746528" r="5" fill="#8b5cf6" fill-opacity="0.65"/><circle cx="744.4936762462273" cy="488.0921447275112" r="5" fill="#8b5cf6" fill-opacity="0.65"/><circle cx="691.6642093202273" cy="488.0258370039651" r="5" fill="#8b5cf6" fill-opacity="0.65"/><circle cx="651.1496587988712" cy="487.81343327516106" r="5" fill="#8b5cf6" fill-opacity="0.65"/><circle cx="751.058134424051" cy="488.1623970233947" r="5" fill="#8b5cf6" fill-opacity="0.65"/><circle cx="603.4685392654833" cy="487.55640340672153" r="5" fill="#8b5cf6" fill-opacity="0.65"/><circle cx="703.4661346876896" cy="487.93767172774153" r="5" fill="#8b5cf6" fill-opacity="0.65"/><circle cx="684.5587973947162" cy="488.0020251924389" r="5" fill="#8b5cf6" fill-opacity="0.65"/><circle cx="705.4663203261124" cy="487.9993881269116" r="5" fill="#8b5cf6" fill-opacity="0.65"/><circle cx="590.0905975426663" cy="487.5386390175376" r="5" fill="#8b5cf6" fill-opacity="0.65"/><circle cx="825.422806541252" cy="488.3175160716509" r="5" fill="#8b5cf6" fill-opacity="0.65"/><circle cx="771.1686291138423" cy="488.22053646240005" r="5" fill="#8b5cf6" fill-opacity="0.65"/><circle cx="796.044538368992" cy="488.27601151877275" r="5" fill="#8b5cf6" fill-opacity="0.65"/><circle cx="789.6513826296234" cy="488.2545388793551" r="5" fill="#8b5cf6" fill-opacity="0.65"/><circle cx="775.5496299559763" cy="488.20147791856516" r="5" fill="#8b5cf6" fill-opacity="0.65"/><circle cx="776.6378792564365" cy="488.22353026167735" r="5" fill="#8b5cf6" fill-opacity="0.65"/><circle cx="790.9617558690015" cy="488.2473247115974" r="5" fill="#8b5cf6" fill-opacity="0.65"/><circle cx="818.6319346809441" cy="488.29524595573935" r="5" fill="#8b5cf6" fill-opacity="0.65"/><circle cx="1000.0" cy="488.66391082396495" r="5" fill="#8b5cf6" fill-opacity="0.65"/><circle cx="961.487889925514" cy="488.63991560728476" r="5" fill="#8b5cf6" fill-opacity="0.65"/><circle cx="840.2943927294406" cy="488.3791896001355" r="5" fill="#8b5cf6" fill-opacity="0.65"/><circle cx="128.6793040014976" cy="448.71286665114525" r="5" fill="#8b5cf6" fill-opacity="0.65"/><circle cx="129.054956056657" cy="448.8086310008317" r="5" fill="#8b5cf6" fill-opacity="0.65"/><circle cx="121.08986316543528" cy="433.29520295324124" r="5" fill="#8b5cf6" fill-opacity="0.65"/><circle cx="117.87539340452845" cy="422.02383319676767" r="5" fill="#8b5cf6" fill-opacity="0.65"/><circle cx="134.88585995862698" cy="456.3756835566762" r="5" fill="#8b5cf6" fill-opacity="0.65"/><circle cx="134.33488261308514" cy="455.23974440038006" r="5" fill="#8b5cf6" fill-opacity="0.65"/><circle cx="129.2385537775334" cy="449.07325762785007" r="5" fill="#8b5cf6" fill-opacity="0.65"/><circle cx="128.57110533576804" cy="448.46437862548504" r="5" fill="#8b5cf6" fill-opacity="0.65"/><circle cx="129.04617630292995" cy="449.235529317952" r="5" fill="#8b5cf6" fill-opacity="0.65"/><circle cx="134.56286882045526" cy="455.5574290756745" r="5" fill="#8b5cf6" fill-opacity="0.65"/><circle cx="126.8590839494272" cy="445.69603847531096" r="5" fill="#8b5cf6" fill-opacity="0.65"/><circle cx="126.36087506356122" cy="445.4786963791055" r="5" fill="#8b5cf6" fill-opacity="0.65"/><circle cx="129.27724864194462" cy="449.2256384593505" r="5" fill="#8b5cf6" fill-opacity="0.65"/><circle cx="132.12657225820047" cy="453.32515883077605" r="5" fill="#8b5cf6" fill-opacity="0.65"/><circle cx="129.04485829929763" cy="448.7510353243439" r="5" fill="#8b5cf6" fill-opacity="0.65"/><circle cx="125.51734413133674" cy="443.2895947309719" r="5" fill="#8b5cf6" fill-opacity="0.65"/><circle cx="135.02613412519668" cy="456.3663012834934" r="5" fill="#8b5cf6" fill-opacity="0.65"/><circle cx="126.17889806028427" cy="444.23401770037543" r="5" fill="#8b5cf6" fill-opacity="0.65"/><circle cx="120.28252774301001" cy="430.9707070930333" r="5" fill="#8b5cf6" fill-opacity="0.65"/><circle cx="122.66212210139292" cy="437.61622414238866" r="5" fill="#8b5cf6" fill-opacity="0.65"/><circle cx="125.05226968461909" cy="442.2166754409699" r="5" fill="#8b5cf6" fill-opacity="0.65"/><circle cx="124.40329756772097" cy="441.63325139200145" r="5" fill="#8b5cf6" fill-opacity="0.65"/><circle cx="121.01922554918286" cy="432.6297584796526" r="5" fill="#8b5cf6" fill-opacity="0.65"/><circle cx="126.30168306191959" cy="444.57351444774366" r="5" fill="#8b5cf6" fill-opacity="0.65"/><circle cx="127.26283736633425" cy="447.3927135848994" r="5" fill="#8b5cf6" fill-opacity="0.65"/><circle cx="128.87112680520306" cy="449.943388304478" r="5" fill="#8b5cf6" fill-opacity="0.65"/><circle cx="128.51701561218252" cy="448.15671860285715" r="5" fill="#8b5cf6" fill-opacity="0.65"/><circle cx="126.07615992749439" cy="444.25942480532666" r="5" fill="#8b5cf6" fill-opacity="0.65"/><circle cx="126.76901343460042" cy="445.7979932177167" r="5" fill="#8b5cf6" fill-opacity="0.65"/><circle cx="125.71355664077724" cy="443.628829760627" r="5" fill="#8b5cf6" fill-opacity="0.65"/><circle cx="127.63779334421267" cy="447.7780799563873" r="5" fill="#8b5cf6" fill-opacity="0.65"/><circle cx="129.01566285159103" cy="449.5183860488737" r="5" fill="#8b5cf6" fill-opacity="0.65"/><circle cx="126.32192669326068" cy="445.10912754984423" r="5" fill="#8b5cf6" fill-opacity="0.65"/><circle cx="126.95437780500617" cy="446.2682578572348" r="5" fill="#8b5cf6" fill-opacity="0.65"/><circle cx="126.67919629319847" cy="445.77873298419803" r="5" fill="#8b5cf6" fill-opacity="0.65"/><circle cx="128.470804962015" cy="448.80376151248475" r="5" fill="#8b5cf6" fill-opacity="0.65"/><circle cx="115.68270176916874" cy="414.5717005400511" r="5" fill="#8b5cf6" fill-opacity="0.65"/><circle cx="115.59931578475536" cy="415.42318899587355" r="5" fill="#8b5cf6" fill-opacity="0.65"/><circle cx="114.53203844736149" cy="412.0527957843552" r="5" fill="#8b5cf6" fill-opacity="0.65"/><circle cx="113.30697681592655" cy="400.68318386288206" r="5" fill="#8b5cf6" fill-opacity="0.65"/><circle cx="112.90262120354335" cy="397.7014599646535" r="5" fill="#8b5cf6" fill-opacity="0.65"/><circle cx="114.1430552061112" cy="406.86984524691354" r="5" fill="#8b5cf6" fill-opacity="0.65"/><circle cx="114.00910791597609" cy="405.9471289619889" r="5" fill="#8b5cf6" fill-opacity="0.65"/><circle cx="112.52561115297144" cy="395.3435348247913" r="5" fill="#8b5cf6" fill-opacity="0.65"/><circle cx="115.09304764156325" cy="411.73439511486663" r="5" fill="#8b5cf6" fill-opacity="0.65"/><circle cx="111.58935526915829" cy="386.2078488252243" r="5" fill="#8b5cf6" fill-opacity="0.65"/><circle cx="111.84561332689255" cy="389.526736017818" r="5" fill="#8b5cf6" fill-opacity="0.65"/><circle cx="114.16739731259338" cy="406.8393443597978" r="5" fill="#8b5cf6" fill-opacity="0.65"/><circle cx="113.09636695420919" cy="401.34975814212993" r="5" fill="#8b5cf6" fill-opacity="0.65"/><circle cx="115.3079511270972" cy="412.5787518686669" r="5" fill="#8b5cf6" fill-opacity="0.65"/><circle cx="114.28853732872051" cy="408.11187481668657" r="5" fill="#8b5cf6" fill-opacity="0.65"/><circle cx="113.25991947830236" cy="400.28335143694227" r="5" fill="#8b5cf6" fill-opacity="0.65"/><circle cx="113.60155415424836" cy="402.94743297074615" r="5" fill="#8b5cf6" fill-opacity="0.65"/><circle cx="114.75674984435544" cy="410.56167707636695" r="5" fill="#8b5cf6" fill-opacity="0.65"/><circle cx="207.05667324544055" cy="474.71058455975674" r="5" fill="#06b6d4" fill-opacity="0.65"/><circle cx="216.6100315526208" cy="478.5373901931797" r="5" fill="#06b6d4" fill-opacity="0.65"/><circle cx="189.95264209458756" cy="475.11259983526196" r="5" fill="#06b6d4" fill-opacity="0.65"/><circle cx="216.68185404591793" cy="478.55282789245535" r="5" fill="#06b6d4" fill-opacity="0.65"/><circle cx="217.4770881869734" cy="478.8040630690931" r="5" fill="#06b6d4" fill-opacity="0.65"/><circle cx="181.33343425649355" cy="473.9466571508404" r="5" fill="#06b6d4" fill-opacity="0.65"/><circle cx="230.4236373307377" cy="476.6407738873002" r="5" fill="#06b6d4" fill-opacity="0.65"/><circle cx="201.82464678995674" cy="472.9319401949976" r="5" fill="#06b6d4" fill-opacity="0.65"/><circle cx="253.91585165469607" cy="475.5155440210596" r="5" fill="#06b6d4" fill-opacity="0.65"/><circle cx="256.97594292348026" cy="477.568279887951" r="5" fill="#06b6d4" fill-opacity="0.65"/><circle cx="245.3537255908128" cy="474.2958785014453" r="5" fill="#06b6d4" fill-opacity="0.65"/><circle cx="259.4866781962884" cy="478.1389592385568" r="5" fill="#06b6d4" fill-opacity="0.65"/><circle cx="223.59159494785814" cy="478.0617402704899" r="5" fill="#06b6d4" fill-opacity="0.65"/><circle cx="256.6045927263494" cy="473.74773286815287" r="5" fill="#06b6d4" fill-opacity="0.65"/><circle cx="255.53336383621493" cy="479.86808276885665" r="5" fill="#06b6d4" fill-opacity="0.65"/><circle cx="247.133231131072" cy="479.698442918454" r="5" fill="#06b6d4" fill-opacity="0.65"/><circle cx="261.4384676116123" cy="475.22296245995443" r="5" fill="#06b6d4" fill-opacity="0.65"/><circle cx="257.9501261785332" cy="479.5926384306083" r="5" fill="#06b6d4" fill-opacity="0.65"/><circle cx="267.5602033999663" cy="480.08753728473954" r="5" fill="#06b6d4" fill-opacity="0.65"/><circle cx="312.0095854846975" cy="474.64924162049203" r="5" fill="#06b6d4" fill-opacity="0.65"/><circle cx="308.0829315822758" cy="479.5396873888411" r="5" fill="#06b6d4" fill-opacity="0.65"/><circle cx="284.1751302199182" cy="479.0016281081232" r="5" fill="#06b6d4" fill-opacity="0.65"/><circle cx="268.78690279942236" cy="474.354267032241" r="5" fill="#06b6d4" fill-opacity="0.65"/><circle cx="317.8329036287679" cy="478.9515200049894" r="5" fill="#06b6d4" fill-opacity="0.65"/><circle cx="404.55773669713443" cy="478.8453111997298" r="5" fill="#06b6d4" fill-opacity="0.65"/><circle cx="296.2005937725358" cy="475.6863766933341" r="5" fill="#06b6d4" fill-opacity="0.65"/><circle cx="383.7342318929307" cy="480.1062088425002" r="5" fill="#06b6d4" fill-opacity="0.65"/><circle cx="381.30627678879205" cy="479.5824138509016" r="5" fill="#06b6d4" fill-opacity="0.65"/><circle cx="266.0228991060148" cy="480.0630423109815" r="5" fill="#06b6d4" fill-opacity="0.65"/><circle cx="322.88367002536086" cy="473.487753750541" r="5" fill="#06b6d4" fill-opacity="0.65"/><circle cx="382.50450595717416" cy="478.8117353865902" r="5" fill="#06b6d4" fill-opacity="0.65"/><circle cx="383.32038032822976" cy="479.07902263645974" r="5" fill="#06b6d4" fill-opacity="0.65"/><circle cx="295.76437407754656" cy="474.8068168331313" r="5" fill="#06b6d4" fill-opacity="0.65"/><circle cx="397.93297322267637" cy="478.8053884519288" r="5" fill="#06b6d4" fill-opacity="0.65"/><circle cx="380.4073224592831" cy="478.63861886484017" r="5" fill="#06b6d4" fill-opacity="0.65"/><circle cx="214.5061753991723" cy="475.21270839954923" r="5" fill="#06b6d4" fill-opacity="0.65"/><circle cx="290.4910451248739" cy="473.71255198008504" r="5" fill="#06b6d4" fill-opacity="0.65"/><circle cx="334.80357826759496" cy="476.6469695906277" r="5" fill="#06b6d4" fill-opacity="0.65"/><circle cx="275.63981644696776" cy="475.4854060709798" r="5" fill="#06b6d4" fill-opacity="0.65"/><circle cx="339.30608203956376" cy="477.28101548744525" r="5" fill="#06b6d4" fill-opacity="0.65"/><circle cx="320.55168048980624" cy="476.9433253382546" r="5" fill="#06b6d4" fill-opacity="0.65"/><circle cx="255.77945849162032" cy="476.3517431039879" r="5" fill="#06b6d4" fill-opacity="0.65"/><circle cx="389.86445205632845" cy="475.8289772434184" r="5" fill="#06b6d4" fill-opacity="0.65"/><circle cx="390.82448927348025" cy="479.32307727162583" r="5" fill="#06b6d4" fill-opacity="0.65"/><circle cx="366.3239714854208" cy="480.162534526859" r="5" fill="#06b6d4" fill-opacity="0.65"/><circle cx="316.96373044839515" cy="474.95131811989586" r="5" fill="#06b6d4" fill-opacity="0.65"/><circle cx="397.20464647693416" cy="479.11437052125166" r="5" fill="#06b6d4" fill-opacity="0.65"/><circle cx="383.6302339315293" cy="479.17120286195103" r="5" fill="#06b6d4" fill-opacity="0.65"/><circle cx="320.40404884732686" cy="478.1957692701566" r="5" fill="#06b6d4" fill-opacity="0.65"/><circle cx="391.8423634501387" cy="475.1296254294239" r="5" fill="#06b6d4" fill-opacity="0.65"/><circle cx="399.76631592335855" cy="479.1417819197744" r="5" fill="#06b6d4" fill-opacity="0.65"/><circle cx="426.71739060097354" cy="478.8757048306849" r="5" fill="#06b6d4" fill-opacity="0.65"/><circle cx="312.16465417696634" cy="475.0678648962144" r="5" fill="#06b6d4" fill-opacity="0.65"/><circle cx="400.513217033396" cy="476.4975940268957" r="5" fill="#06b6d4" fill-opacity="0.65"/><circle cx="207.41433442532963" cy="476.72047817514795" r="5" fill="#22c55e" fill-opacity="0.65"/><circle cx="192.4179367009989" cy="474.3551323589574" r="5" fill="#22c55e" fill-opacity="0.65"/><circle cx="215.95928237081748" cy="477.68809405826204" r="5" fill="#22c55e" fill-opacity="0.65"/><circle cx="197.56369530685618" cy="475.7080195899747" r="5" fill="#22c55e" fill-opacity="0.65"/><circle cx="213.50022374112035" cy="477.283990593675" r="5" fill="#22c55e" fill-opacity="0.65"/><circle cx="214.57652469400404" cy="477.5035009087893" r="5" fill="#22c55e" fill-opacity="0.65"/><circle cx="245.41482910150606" cy="477.3274523860032" r="5" fill="#22c55e" fill-opacity="0.65"/><circle cx="252.41051889260882" cy="479.12387343302066" r="5" fill="#22c55e" fill-opacity="0.65"/><circle cx="249.0238352653309" cy="479.5460979600294" r="5" fill="#22c55e" fill-opacity="0.65"/><circle cx="245.70460379074606" cy="478.28064291421" r="5" fill="#22c55e" fill-opacity="0.65"/><circle cx="252.0080098299406" cy="479.3675434726593" r="5" fill="#22c55e" fill-opacity="0.65"/><circle cx="248.97325161931408" cy="479.46971287110193" r="5" fill="#22c55e" fill-opacity="0.65"/><circle cx="237.60726092021824" cy="477.85510077692857" r="5" fill="#22c55e" fill-opacity="0.65"/><circle cx="249.3833474871485" cy="479.4277671821056" r="5" fill="#22c55e" fill-opacity="0.65"/><circle cx="242.98607223692855" cy="479.14724090088066" r="5" fill="#22c55e" fill-opacity="0.65"/><circle cx="248.00759021939115" cy="477.73240359632194" r="5" fill="#22c55e" fill-opacity="0.65"/><circle cx="251.55187627096228" cy="479.6235439906982" r="5" fill="#22c55e" fill-opacity="0.65"/><circle cx="252.82646792081883" cy="479.7268042881654" r="5" fill="#22c55e" fill-opacity="0.65"/><circle cx="247.33868417539867" cy="477.63542476626515" r="5" fill="#22c55e" fill-opacity="0.65"/><circle cx="319.3775885131473" cy="479.73418351600765" r="5" fill="#22c55e" fill-opacity="0.65"/><circle cx="307.05089213522547" cy="479.5567429024584" r="5" fill="#22c55e" fill-opacity="0.65"/><circle cx="253.91569948512637" cy="478.264730755112" r="5" fill="#22c55e" fill-opacity="0.65"/><circle cx="298.9270351639922" cy="478.68654892973404" r="5" fill="#22c55e" fill-opacity="0.65"/><circle cx="305.76797948945534" cy="479.87437109768814" r="5" fill="#22c55e" fill-opacity="0.65"/><circle cx="291.05580022909993" cy="479.5921454290431" r="5" fill="#22c55e" fill-opacity="0.65"/><circle cx="383.1523257802439" cy="476.57580905950755" r="5" fill="#22c55e" fill-opacity="0.65"/><circle cx="382.2871826108104" cy="479.62136993919336" r="5" fill="#22c55e" fill-opacity="0.65"/><circle cx="390.6714228802099" cy="479.6055594230384" r="5" fill="#22c55e" fill-opacity="0.65"/><circle cx="300.27474105325234" cy="478.50998870477366" r="5" fill="#22c55e" fill-opacity="0.65"/><circle cx="376.82307230917695" cy="478.54412239666794" r="5" fill="#22c55e" fill-opacity="0.65"/><circle cx="381.56614979960534" cy="479.7111780622532" r="5" fill="#22c55e" fill-opacity="0.65"/><circle cx="354.99495547224603" cy="479.69494286377875" r="5" fill="#22c55e" fill-opacity="0.65"/><circle cx="305.50810720284085" cy="478.1007655631299" r="5" fill="#22c55e" fill-opacity="0.65"/><circle cx="388.189832063653" cy="479.7059580056143" r="5" fill="#22c55e" fill-opacity="0.65"/><circle cx="293.78931013925086" cy="479.5478352101292" r="5" fill="#22c55e" fill-opacity="0.65"/><circle cx="301.5046920789963" cy="475.1170715650067" r="5" fill="#22c55e" fill-opacity="0.65"/><circle cx="310.2162984234735" cy="474.91080560699965" r="5" fill="#22c55e" fill-opacity="0.65"/><circle cx="304.6576286338187" cy="477.40624594217286" r="5" fill="#22c55e" fill-opacity="0.65"/><circle cx="268.195518146252" cy="476.0148976821068" r="5" fill="#22c55e" fill-opacity="0.65"/><circle cx="295.42397523990724" cy="476.27473593240177" r="5" fill="#22c55e" fill-opacity="0.65"/><circle cx="329.5938212799012" cy="476.1096239287145" r="5" fill="#22c55e" fill-opacity="0.65"/><circle cx="255.23029521726193" cy="475.34526436327735" r="5" fill="#22c55e" fill-opacity="0.65"/><circle cx="385.4218471774865" cy="476.1406780799398" r="5" fill="#22c55e" fill-opacity="0.65"/><circle cx="373.5970274429158" cy="478.32838809121745" r="5" fill="#22c55e" fill-opacity="0.65"/><circle cx="343.08056816147723" cy="478.43961930313196" r="5" fill="#22c55e" fill-opacity="0.65"/><circle cx="331.02692583050043" cy="475.41131418941103" r="5" fill="#22c55e" fill-opacity="0.65"/><circle cx="358.2216519583668" cy="478.38696806872497" r="5" fill="#22c55e" fill-opacity="0.65"/><circle cx="353.9781375504294" cy="478.51543199612485" r="5" fill="#22c55e" fill-opacity="0.65"/><circle cx="309.403264756342" cy="475.9114874620765" r="5" fill="#22c55e" fill-opacity="0.65"/><circle cx="385.3025556845094" cy="477.55148069065996" r="5" fill="#22c55e" fill-opacity="0.65"/><circle cx="377.109573179001" cy="478.4355465801929" r="5" fill="#22c55e" fill-opacity="0.65"/><circle cx="275.78416198342444" cy="478.3178237913751" r="5" fill="#22c55e" fill-opacity="0.65"/><circle cx="355.10375964848987" cy="475.46376951379324" r="5" fill="#22c55e" fill-opacity="0.65"/><circle cx="366.168121910541" cy="476.6388786881748" r="5" fill="#22c55e" fill-opacity="0.65"/><circle cx="104.17765480051412" cy="205.13789236816905" r="5" fill="#f59e0b" fill-opacity="0.65"/><circle cx="103.61411357873351" cy="166.52238152759543" r="5" fill="#f59e0b" fill-opacity="0.65"/><circle cx="103.37284243664236" cy="135.0649973970323" r="5" fill="#f59e0b" fill-opacity="0.65"/><circle cx="103.65221191642897" cy="163.5836407784504" r="5" fill="#f59e0b" fill-opacity="0.65"/><circle cx="103.60965194886563" cy="157.98628097917606" r="5" fill="#f59e0b" fill-opacity="0.65"/><circle cx="103.38519673517969" cy="139.76499770927433" r="5" fill="#f59e0b" fill-opacity="0.65"/><circle cx="103.1052308920953" cy="108.32965001268309" r="5" fill="#f59e0b" fill-opacity="0.65"/><circle cx="103.08363122108787" cy="100.0" r="5" fill="#f59e0b" fill-opacity="0.65"/><circle cx="104.03370207264652" cy="194.90813116935072" r="5" fill="#f59e0b" fill-opacity="0.65"/><circle cx="104.02136087680499" cy="193.78345678378423" r="5" fill="#f59e0b" fill-opacity="0.65"/><circle cx="104.06873130920549" cy="199.4271664315022" r="5" fill="#f59e0b" fill-opacity="0.65"/><circle cx="104.09377098392467" cy="200.64553636669092" r="5" fill="#f59e0b" fill-opacity="0.65"/><circle cx="103.92936880546608" cy="189.67187410460906" r="5" fill="#f59e0b" fill-opacity="0.65"/><circle cx="104.14146240413996" cy="203.7058265542317" r="5" fill="#f59e0b" fill-opacity="0.65"/><circle cx="103.88133647735162" cy="183.42774848545673" r="5" fill="#f59e0b" fill-opacity="0.65"/><circle cx="104.00333576773875" cy="195.68126145575667" r="5" fill="#f59e0b" fill-opacity="0.65"/><circle cx="103.78716084705295" cy="176.4638246540987" r="5" fill="#f59e0b" fill-opacity="0.65"/><circle cx="103.99504744764597" cy="193.81389479841675" r="5" fill="#f59e0b" fill-opacity="0.65"/><circle cx="107.1582500461352" cy="326.9709884902575" r="5" fill="#f59e0b" fill-opacity="0.65"/><circle cx="106.98022300066211" cy="321.47126269290845" r="5" fill="#f59e0b" fill-opacity="0.65"/><circle cx="107.15956160805473" cy="324.1633226651653" r="5" fill="#f59e0b" fill-opacity="0.65"/><circle cx="107.17662849197062" cy="323.6163527190853" r="5" fill="#f59e0b" fill-opacity="0.65"/><circle cx="107.05055743926503" cy="318.3180404806527" r="5" fill="#f59e0b" fill-opacity="0.65"/><circle cx="105.54015822090686" cy="269.45894371476925" r="5" fill="#f59e0b" fill-opacity="0.65"/><circle cx="106.45921774051345" cy="307.0118723437152" r="5" fill="#f59e0b" fill-opacity="0.65"/><circle cx="106.02280054628723" cy="306.66964886321887" r="5" fill="#f59e0b" fill-opacity="0.65"/><circle cx="108.79132684782604" cy="354.8353174140002" r="5" fill="#f59e0b" fill-opacity="0.65"/><circle cx="106.7526021613315" cy="314.57107230125314" r="5" fill="#f59e0b" fill-opacity="0.65"/><circle cx="108.66899711679034" cy="353.61323981108467" r="5" fill="#f59e0b" fill-opacity="0.65"/><circle cx="107.51404711139715" cy="331.20483372736413" r="5" fill="#f59e0b" fill-opacity="0.65"/><circle cx="107.67677230702101" cy="334.8001663761462" r="5" fill="#f59e0b" fill-opacity="0.65"/><circle cx="107.420336055119" cy="329.0211326738852" r="5" fill="#f59e0b" fill-opacity="0.65"/><circle cx="108.44192631801131" cy="350.057032199074" r="5" fill="#f59e0b" fill-opacity="0.65"/><circle cx="107.23702317695667" cy="326.2615037764318" r="5" fill="#f59e0b" fill-opacity="0.65"/><circle cx="106.9559855408961" cy="321.61715277967096" r="5" fill="#f59e0b" fill-opacity="0.65"/><circle cx="107.92644838996308" cy="341.49920672702837" r="5" fill="#f59e0b" fill-opacity="0.65"/><circle cx="106.42734008575074" cy="301.13417928344563" r="5" fill="#f59e0b" fill-opacity="0.65"/><circle cx="109.78419653642095" cy="368.9156613496645" r="5" fill="#f59e0b" fill-opacity="0.65"/><circle cx="108.74076974863704" cy="350.7855242040609" r="5" fill="#f59e0b" fill-opacity="0.65"/><circle cx="108.12544943438614" cy="342.19546862880975" r="5" fill="#f59e0b" fill-opacity="0.65"/><circle cx="108.48489086876465" cy="343.62668339108586" r="5" fill="#f59e0b" fill-opacity="0.65"/><circle cx="108.06304300660426" cy="337.2974719531479" r="5" fill="#f59e0b" fill-opacity="0.65"/><circle cx="108.71102305870886" cy="356.32479890350646" r="5" fill="#f59e0b" fill-opacity="0.65"/><circle cx="109.12273396690325" cy="358.51929312742817" r="5" fill="#f59e0b" fill-opacity="0.65"/><circle cx="108.26781683319336" cy="344.39798861322026" r="5" fill="#f59e0b" fill-opacity="0.65"/><circle cx="108.00247550524993" cy="345.0597684108195" r="5" fill="#f59e0b" fill-opacity="0.65"/><circle cx="108.24523208839744" cy="345.7701476445736" r="5" fill="#f59e0b" fill-opacity="0.65"/><circle cx="108.8582318269786" cy="357.4092909795768" r="5" fill="#f59e0b" fill-opacity="0.65"/><circle cx="108.11183486465892" cy="342.0699185238041" r="5" fill="#f59e0b" fill-opacity="0.65"/><circle cx="109.11441209170066" cy="359.9086495080354" r="5" fill="#f59e0b" fill-opacity="0.65"/><circle cx="107.35349560016802" cy="328.5707534899982" r="5" fill="#f59e0b" fill-opacity="0.65"/><circle cx="108.27412931932348" cy="348.17925280608074" r="5" fill="#f59e0b" fill-opacity="0.65"/><circle cx="107.85487701505765" cy="341.4121936109599" r="5" fill="#f59e0b" fill-opacity="0.65"/><circle cx="109.14715754961446" cy="360.09347500046556" r="5" fill="#f59e0b" fill-opacity="0.65"/><circle cx="197.28811560561712" cy="317.3724611752468" r="5" fill="#ef4444" fill-opacity="0.65"/><circle cx="218.1768556800298" cy="341.68038915657144" r="5" fill="#ef4444" fill-opacity="0.65"/><circle cx="215.2690871395198" cy="320.49336639302146" r="5" fill="#ef4444" fill-opacity="0.65"/><circle cx="186.94584677746508" cy="316.7567376825498" r="5" fill="#ef4444" fill-opacity="0.65"/><circle cx="216.28705832951948" cy="413.56144811210845" r="5" fill="#ef4444" fill-opacity="0.65"/><circle cx="207.0807904084702" cy="319.5210990969692" r="5" fill="#ef4444" fill-opacity="0.65"/><circle cx="224.19690641229712" cy="315.1868083139782" r="5" fill="#ef4444" fill-opacity="0.65"/><circle cx="252.10186569974957" cy="415.00060646419945" r="5" fill="#ef4444" fill-opacity="0.65"/><circle cx="255.6568549359882" cy="398.98452192723664" r="5" fill="#ef4444" fill-opacity="0.65"/><circle cx="237.03387900361557" cy="397.559639960666" r="5" fill="#ef4444" fill-opacity="0.65"/><circle cx="243.56439914979882" cy="321.56129490551666" r="5" fill="#ef4444" fill-opacity="0.65"/><circle cx="255.9030494929848" cy="427.1672339167852" r="5" fill="#ef4444" fill-opacity="0.65"/><circle cx="250.94845452794695" cy="398.8972614971375" r="5" fill="#ef4444" fill-opacity="0.65"/><circle cx="249.4651164008394" cy="321.6598906269915" r="5" fill="#ef4444" fill-opacity="0.65"/><circle cx="252.25202374059316" cy="324.3301772598271" r="5" fill="#ef4444" fill-opacity="0.65"/><circle cx="245.61635956874477" cy="319.95242898141396" r="5" fill="#ef4444" fill-opacity="0.65"/><circle cx="239.438386117108" cy="320.08658465650444" r="5" fill="#ef4444" fill-opacity="0.65"/><circle cx="252.4672466763916" cy="404.944590307584" r="5" fill="#ef4444" fill-opacity="0.65"/><circle cx="286.6545186557073" cy="321.9432907421932" r="5" fill="#ef4444" fill-opacity="0.65"/><circle cx="304.594003777852" cy="321.5505875293818" r="5" fill="#ef4444" fill-opacity="0.65"/><circle cx="294.40675448808076" cy="398.98615777647007" r="5" fill="#ef4444" fill-opacity="0.65"/><circle cx="295.2554913340982" cy="321.48756574159165" r="5" fill="#ef4444" fill-opacity="0.65"/><circle cx="285.3674948792548" cy="320.6740387922621" r="5" fill="#ef4444" fill-opacity="0.65"/><circle cx="291.95349579265024" cy="397.9674292982928" r="5" fill="#ef4444" fill-opacity="0.65"/><circle cx="380.9528815697425" cy="329.274367695877" r="5" fill="#ef4444" fill-opacity="0.65"/><circle cx="377.4029778162931" cy="322.5716545139503" r="5" fill="#ef4444" fill-opacity="0.65"/><circle cx="385.33835853924074" cy="385.6979433994788" r="5" fill="#ef4444" fill-opacity="0.65"/><circle cx="397.37333318008604" cy="321.5880365847591" r="5" fill="#ef4444" fill-opacity="0.65"/><circle cx="352.9534523168395" cy="320.19928219424105" r="5" fill="#ef4444" fill-opacity="0.65"/><circle cx="376.69313325759987" cy="392.15557419960936" r="5" fill="#ef4444" fill-opacity="0.65"/><circle cx="382.09391531675834" cy="321.1094402043725" r="5" fill="#ef4444" fill-opacity="0.65"/><circle cx="310.69530548828027" cy="318.4557283464245" r="5" fill="#ef4444" fill-opacity="0.65"/><circle cx="425.51561461563745" cy="396.7529288304305" r="5" fill="#ef4444" fill-opacity="0.65"/><circle cx="397.03891156546047" cy="320.82190500818183" r="5" fill="#ef4444" fill-opacity="0.65"/><circle cx="355.6189117783092" cy="320.4797157364852" r="5" fill="#ef4444" fill-opacity="0.65"/><circle cx="429.97739977994047" cy="393.01815605685493" r="5" fill="#ef4444" fill-opacity="0.65"/><circle cx="322.56807239979616" cy="321.5641375945189" r="5" fill="#ef4444" fill-opacity="0.65"/><circle cx="291.4823189192997" cy="320.2631230716686" r="5" fill="#ef4444" fill-opacity="0.65"/><circle cx="326.1773301248372" cy="394.5873508440865" r="5" fill="#ef4444" fill-opacity="0.65"/><circle cx="335.0841708000364" cy="320.8238768631586" r="5" fill="#ef4444" fill-opacity="0.65"/><circle cx="278.24161990048674" cy="317.1757550402757" r="5" fill="#ef4444" fill-opacity="0.65"/><circle cx="316.05097763497105" cy="396.2151463595234" r="5" fill="#ef4444" fill-opacity="0.65"/><circle cx="379.4582669446388" cy="319.93060444983126" r="5" fill="#ef4444" fill-opacity="0.65"/><circle cx="312.9915816503134" cy="320.62843505416186" r="5" fill="#ef4444" fill-opacity="0.65"/><circle cx="381.6264939700475" cy="398.7017393103356" r="5" fill="#ef4444" fill-opacity="0.65"/><circle cx="337.85233110363754" cy="321.90402788678" r="5" fill="#ef4444" fill-opacity="0.65"/><circle cx="397.55427512132843" cy="321.732747504432" r="5" fill="#ef4444" fill-opacity="0.65"/><circle cx="328.23387722551024" cy="392.7082210357698" r="5" fill="#ef4444" fill-opacity="0.65"/><circle cx="396.09712662711325" cy="321.06138418272974" r="5" fill="#ef4444" fill-opacity="0.65"/><circle cx="396.26550662899973" cy="321.3883368093699" r="5" fill="#ef4444" fill-opacity="0.65"/><circle cx="411.4000106495748" cy="395.93664349611976" r="5" fill="#ef4444" fill-opacity="0.65"/><circle cx="386.6601163310584" cy="322.14933509196356" r="5" fill="#ef4444" fill-opacity="0.65"/><circle cx="368.0649899700133" cy="321.89059631178634" r="5" fill="#ef4444" fill-opacity="0.65"/><circle cx="420.2583319344959" cy="390.81429030201195" r="5" fill="#ef4444" fill-opacity="0.65"/><circle cx="120" cy="570" r="6" fill="#8b5cf6"/><text x="132" y="575" class="legend">synthetic</text><circle cx="350" cy="570" r="6" fill="#06b6d4"/><text x="362" y="575" class="legend">pubsub</text><circle cx="580" cy="570" r="6" fill="#22c55e"/><text x="592" y="575" class="legend">streams</text><circle cx="810" cy="570" r="6" fill="#f59e0b"/><text x="822" y="575" class="legend">cpu_redis</text><circle cx="120" cy="594" r="6" fill="#ef4444"/><text x="132" y="599" class="legend">pgoutput_redis</text>
</svg>
