<svg xmlns="http://www.w3.org/2000/svg" viewBox="0 0 1100 600" role="img">
  <style>
    text{font-family:Inter,ui-sans-serif,system-ui,sans-serif;fill:#e2e8f0}.title{font-size:28px;font-weight:750}
    .subtitle{font-size:15px;fill:#94a3b8}.label{font-size:18px;font-weight:650}.small-label{font-size:13px}
    .value{font-size:15px;text-anchor:end}.track{fill:#1e293b}.grid{stroke:#334155;stroke-width:1}
    .axis-value{font-size:12px;fill:#94a3b8;text-anchor:end}.axis-label{font-size:13px;fill:#94a3b8}
    .legend{font-size:13px;fill:#cbd5e1}
  </style>
  <rect width="100%" height="100%" rx="28" fill="#0f172a"/>
  <text x="32" y="45" class="title">Ractor scaling</text>
  <text x="32" y="72" class="subtitle">Median runtime throughput at each configured Ractor count</text>
  <line x1="100" y1="100.0" x2="1000" y2="100.0" class="grid"/><text x="88" y="105.0" class="axis-value">29.7k</text><line x1="100" y1="197.5" x2="1000" y2="197.5" class="grid"/><text x="88" y="202.5" class="axis-value">22.3k</text><line x1="100" y1="295.0" x2="1000" y2="295.0" class="grid"/><text x="88" y="300.0" class="axis-value">14.8k</text><line x1="100" y1="392.5" x2="1000" y2="392.5" class="grid"/><text x="88" y="397.5" class="axis-value">7.4k</text><line x1="100" y1="490.0" x2="1000" y2="490.0" class="grid"/><text x="88" y="495.0" class="axis-value">0.0</text><text x="550" y="545" class="axis-label">Ractors</text><text x="25" y="295" class="axis-label">Events/second</text><polyline points="100.0,188.3084959678156 400.0,137.8870418114456 1000.0,100.0" fill="none" stroke="#8b5cf6" stroke-width="5"/><circle cx="100.0" cy="188.3084959678156" r="7" fill="#8b5cf6"/><circle cx="400.0" cy="137.8870418114456" r="7" fill="#8b5cf6"/><circle cx="1000.0" cy="100.0" r="7" fill="#8b5cf6"/><circle cx="120" cy="570" r="6" fill="#8b5cf6"/><text x="132" y="575" class="legend">synthetic</text><polyline points="100.0,374.2830618788802 400.0,325.23485588660367 1000.0,296.56347610357307" fill="none" stroke="#22c55e" stroke-width="5"/><circle cx="100.0" cy="374.2830618788802" r="7" fill="#22c55e"/><circle cx="400.0" cy="325.23485588660367" r="7" fill="#22c55e"/><circle cx="1000.0" cy="296.56347610357307" r="7" fill="#22c55e"/><circle cx="350" cy="570" r="6" fill="#22c55e"/><text x="362" y="575" class="legend">streams</text><polyline points="100.0,379.0389432926474 400.0,269.81556367020596 1000.0,276.6815919087212" fill="none" stroke="#ef4444" stroke-width="5"/><circle cx="100.0" cy="379.0389432926474" r="7" fill="#ef4444"/><circle cx="400.0" cy="269.81556367020596" r="7" fill="#ef4444"/><circle cx="1000.0" cy="276.6815919087212" r="7" fill="#ef4444"/><circle cx="580" cy="570" r="6" fill="#ef4444"/><text x="592" y="575" class="legend">pgoutput_redis</text><polyline points="100.0,374.3316862950388 400.0,316.6548412861084 1000.0,278.06704433812007" fill="none" stroke="#06b6d4" stroke-width="5"/><circle cx="100.0" cy="374.3316862950388" r="7" fill="#06b6d4"/><circle cx="400.0" cy="316.6548412861084" r="7" fill="#06b6d4"/><circle cx="1000.0" cy="278.06704433812007" r="7" fill="#06b6d4"/><circle cx="810" cy="570" r="6" fill="#06b6d4"/><text x="822" y="575" class="legend">pubsub</text><polyline points="100.0,486.87312133345233 400.0,484.2890454828102 1000.0,483.4156858941673" fill="none" stroke="#f59e0b" stroke-width="5"/><circle cx="100.0" cy="486.87312133345233" r="7" fill="#f59e0b"/><circle cx="400.0" cy="484.2890454828102" r="7" fill="#f59e0b"/><circle cx="1000.0" cy="483.4156858941673" r="7" fill="#f59e0b"/><circle cx="120" cy="594" r="6" fill="#f59e0b"/><text x="132" y="599" class="legend">cpu_redis</text>
</svg>
